<?xml version="1.0" standalone="no"?>
<!DOCTYPE svg PUBLIC "-//W3C//DTD SVG 20010904//EN"
 "http://www.w3.org/TR/2001/REC-SVG-20010904/DTD/svg10.dtd">
<svg version="1.0" xmlns="http://www.w3.org/2000/svg"
 width="310.000000pt" height="310.000000pt" viewBox="0 0 310.000000 310.000000"
 preserveAspectRatio="xMidYMid meet">
<metadata>
Created by potrace 1.14, written by Peter Selinger 2001-2017
</metadata>
<g transform="translate(0.000000,310.000000) scale(0.100000,-0.100000)"
fill="#000000" stroke="none">
<path d="M1105 3074 c-88 -27 -188 -67 -280 -114 l-90 -45 4 -133 c2 -72 -1
-132 -5 -132 -16 0 -161 -134 -230 -213 l-68 -78 -126 3 -125 3 -55 -110 c-47
-92 -85 -193 -115 -301 -4 -18 11 -36 82 -100 l88 -79 -1 -223 -1 -223 -85
-79 c-96 -89 -92 -73 -51 -205 30 -94 116 -275 141 -298 15 -13 33 -14 132 -6
l115 9 30 -38 c52 -65 178 -192 229 -230 l48 -37 -6 -121 c-5 -108 -4 -122 12
-137 46 -42 351 -167 406 -167 14 0 48 31 101 90 l80 90 45 -8 c58 -9 282 -9
340 0 l45 8 80 -90 c53 -59 87 -90 101 -90 55 0 360 125 406 167 16 15 17 29
12 138 l-7 121 49 36 c49 36 174 161 229 230 l30 37 115 -9 c97 -7 118 -6 132
7 37 33 143 276 166 381 l10 42 -86 80 -85 79 -1 223 -1 223 88 79 c71 64 86
82 82 100 -30 108 -68 209 -115 301 l-55 110 -130 -3 -130 -3 -24 35 c-30 46
-191 207 -237 237 l-35 24 3 130 3 130 -90 45 c-95 49 -195 89 -285 114 l-54
16 -88 -94 -89 -94 -42 10 c-23 6 -119 8 -215 6 l-173 -5 -81 89 c-45 48 -84
88 -87 87 -3 0 -28 -7 -56 -15z m124 -136 l74 -83 247 1 248 0 73 82 c41 45
82 82 92 82 25 0 199 -66 280 -107 l68 -34 -7 -123 -7 -123 39 -28 c60 -44
211 -194 256 -253 l40 -54 124 7 124 7 45 -93 c24 -52 58 -132 75 -179 l30
-85 -28 -25 c-15 -14 -56 -50 -92 -81 l-64 -56 13 -122 c10 -96 10 -146 0
-239 l-12 -119 49 -44 c27 -24 68 -62 91 -84 l42 -40 -29 -82 c-15 -45 -48
-125 -73 -177 l-45 -94 -124 5 -124 6 -51 -64 c-57 -71 -162 -175 -237 -234
l-49 -39 7 -121 7 -121 -118 -56 c-65 -30 -145 -63 -179 -72 l-61 -18 -54 58
c-121 131 -107 122 -174 113 -77 -9 -273 -9 -350 0 -67 9 -53 18 -174 -113
l-54 -58 -61 18 c-64 19 -155 57 -244 102 l-53 27 7 121 7 120 -49 39 c-75 59
-180 163 -237 234 l-51 64 -124 -6 -124 -5 -45 94 c-25 52 -58 132 -73 177
l-29 82 42 40 c23 22 64 60 91 84 l49 45 -12 114 c-10 92 -10 139 0 240 l13
125 -30 26 c-16 14 -58 51 -92 81 l-62 55 30 85 c17 47 51 127 75 179 l45 93
124 -7 124 -7 40 54 c45 59 196 209 256 253 l39 28 -7 123 -7 123 60 31 c59
29 191 85 241 100 53 17 64 11 139 -72z"/>
<path d="M1235 2538 c-3 -7 -6 -83 -7 -168 l-3 -155 -151 -5 c-107 -4 -156 -9
-168 -19 -13 -11 -16 -36 -16 -162 l0 -149 -72 -2 c-40 -1 -106 -1 -146 1 -97
4 -124 -3 -120 -32 3 -22 6 -22 171 -25 l167 -2 0 -120 0 -120 -157 0 c-87 0
-164 -4 -171 -9 -8 -5 -12 -17 -10 -27 3 -18 16 -19 171 -22 l167 -2 0 -120 0
-120 -157 0 c-87 0 -164 -4 -171 -9 -8 -5 -12 -17 -10 -27 3 -18 16 -19 171
-22 l167 -2 0 -149 c0 -194 -9 -185 191 -189 l149 -3 0 -165 0 -165 23 3 c22
3 22 6 25 166 l2 162 120 0 120 0 0 -152 c0 -84 4 -159 9 -166 5 -8 17 -12 27
-10 18 3 19 16 22 166 l2 162 120 0 120 0 0 -152 c0 -84 4 -159 9 -166 5 -8
17 -12 27 -10 18 3 19 16 22 165 l2 162 150 3 c127 3 152 6 167 21 15 15 18
40 21 167 l3 150 162 2 c149 3 162 4 165 22 2 10 -2 22 -10 27 -7 5 -82 9
-165 9 l-153 0 0 120 0 120 163 2 c159 3 162 3 165 25 5 31 -18 35 -186 31
l-142 -3 0 122 0 123 163 2 c159 3 162 3 165 25 4 30 -14 33 -183 30 l-140 -2
-5 147 c-7 197 3 188 -192 188 l-148 0 0 165 c0 139 -2 167 -15 171 -8 4 -22
1 -30 -6 -12 -10 -15 -43 -15 -171 l0 -159 -120 0 -120 0 0 165 c0 139 -2 167
-15 171 -8 4 -22 1 -30 -6 -12 -10 -15 -43 -15 -171 l0 -159 -120 0 -120 0 -2
167 c-3 151 -5 168 -21 171 -9 2 -19 -2 -22 -10z m923 -993 l2 -605 -608 2
-607 3 -3 602 -2 602 102 3 c57 2 330 2 609 0 l505 -2 2 -605z"/>
<path d="M1240 1860 c-19 -19 -20 -33 -20 -310 0 -277 1 -291 20 -310 19 -19
33 -20 310 -20 277 0 291 1 310 20 19 19 20 33 20 310 0 277 -1 291 -20 310
-19 19 -33 20 -310 20 -277 0 -291 -1 -310 -20z m587 -232 c-2 -35 -3 -7 -3
62 0 69 1 97 3 63 2 -35 2 -91 0 -125z m-550 -205 c-1 -71 -3 -13 -3 127 0
140 2 198 3 128 2 -71 2 -185 0 -255z m206 -150 c-7 -2 -19 -2 -25 0 -7 3 -2
5 12 5 14 0 19 -2 13 -5z"/>
</g>
</svg>
