G75*
%MOMM*%
%OFA0B0*%
%FSLAX33Y33*%
%IPPOS*%
%LPD*%
%AMOC8*
5,1,8,0,0,1.08239X$1,22.5*
%
%ADD10C,0.127*%
%ADD11C,0.178*%
%ADD12C,0.102*%
%ADD13C,0.203*%
%ADD14C,0.152*%
D10*
X02080Y10196D02*
X02080Y14696D01*
X05580Y16446D02*
X09580Y16446D01*
X09580Y15596D01*
X07080Y15596D01*
X07080Y14196D01*
X07080Y10696D02*
X07080Y09296D01*
X09580Y09296D01*
X09580Y08446D01*
X05580Y08446D01*
X22098Y08636D02*
X22098Y08255D01*
X20066Y08255D01*
X20066Y08636D01*
X22098Y08636D01*
X22098Y08298D02*
X20066Y08298D01*
X20066Y08424D02*
X22098Y08424D01*
X22098Y08549D02*
X20066Y08549D01*
D11*
X10464Y14821D02*
X10464Y15651D01*
X10049Y15236D02*
X10879Y15236D01*
X10464Y09936D02*
X10464Y09106D01*
D12*
X05196Y18297D02*
X05001Y18492D01*
X04612Y18492D01*
X04417Y18297D01*
X04417Y17518D01*
X04612Y17323D01*
X05001Y17323D01*
X05196Y17518D01*
X05586Y17323D02*
X05586Y18492D01*
X06366Y17323D01*
X06366Y18492D01*
X06755Y18102D02*
X07145Y18492D01*
X07145Y17323D01*
X06755Y17323D02*
X07535Y17323D01*
D13*
X15812Y15692D02*
X26352Y15692D01*
X26352Y08692D01*
X22082Y08692D01*
X20082Y08692D01*
X15812Y08692D01*
X15812Y15692D01*
X20082Y08692D02*
X20082Y08192D01*
X22082Y08192D01*
X22082Y08692D01*
D14*
X16400Y16074D02*
X15959Y16735D01*
X16400Y16735D02*
X15959Y16074D01*
X16708Y16515D02*
X16928Y16735D01*
X16928Y16074D01*
X16708Y16074D02*
X17148Y16074D01*
M02*
