G75*
%MOMM*%
%OFA0B0*%
%FSLAX33Y33*%
%IPPOS*%
%LPD*%
%AMOC8*
5,1,8,0,0,1.08239X$1,22.5*
%
%ADD10R,4.803X1.203*%
%ADD11R,3.603X1.803*%
%ADD12C,2.743*%
%ADD13C,4.013*%
%ADD14C,1.981*%
%ADD15R,0.853X2.803*%
D10*
X08780Y11446D03*
X08780Y13446D03*
D11*
X03580Y09046D03*
X03580Y15846D03*
D12*
X49530Y21590D03*
X49530Y03810D03*
D13*
X03810Y21590D03*
X03810Y03810D03*
D14*
X17780Y22860D03*
X20320Y22860D03*
X22860Y22860D03*
X25400Y22860D03*
X27940Y22860D03*
X30480Y22860D03*
X33020Y22860D03*
X35560Y22860D03*
X38100Y22860D03*
X40640Y22860D03*
X43180Y22860D03*
X45720Y22860D03*
X17780Y02540D03*
X20320Y02540D03*
X22860Y02540D03*
X25400Y02540D03*
X27940Y02540D03*
X30480Y02540D03*
X33020Y02540D03*
X35560Y02540D03*
X38100Y02540D03*
X40640Y02540D03*
X43180Y02540D03*
X45720Y02540D03*
X15240Y02540D03*
X12700Y02540D03*
X10160Y02540D03*
X07620Y02540D03*
D15*
X18542Y10342D03*
X18542Y14042D03*
X19812Y10342D03*
X19812Y14042D03*
X21082Y10342D03*
X21082Y14042D03*
X22352Y10342D03*
X22352Y14042D03*
X23622Y10342D03*
X23622Y14042D03*
M02*
