%
M48
METRIC,TZ,000.000
T01C1.000000
T02C2.500000
T03C2.540000
%
T01
X17780Y22860
X20320Y22860
X22860Y22860
X25400Y22860
X27940Y22860
X30480Y22860
X33020Y22860
X35560Y22860
X38100Y22860
X40640Y22860
X43180Y22860
X45720Y22860
X17780Y2540
X20320Y2540
X22860Y2540
X25400Y2540
X27940Y2540
X30480Y2540
X33020Y2540
X35560Y2540
X38100Y2540
X40640Y2540
X43180Y2540
X45720Y2540
X15240Y2540
X12700Y2540
X10160Y2540
X7620Y2540
T02
X3810Y21590
X3810Y3810
T03
X49530Y21590
X49530Y3810
M30
