G75*
%MOMM*%
%OFA0B0*%
%FSLAX33Y33*%
%IPPOS*%
%LPD*%
%AMOC8*
5,1,8,0,0,1.08239X$1,22.5*
%
%ADD10C,0.000*%
D10*
X01270Y01270D02*
X51994Y01270D01*
X51994Y24120D01*
X01270Y24120D01*
X01270Y01270D01*
X03810Y01270D02*
X49530Y01270D01*
X49630Y01272D01*
X49729Y01278D01*
X49829Y01288D01*
X49927Y01301D01*
X50026Y01319D01*
X50123Y01340D01*
X50219Y01365D01*
X50315Y01394D01*
X50409Y01427D01*
X50502Y01463D01*
X50593Y01503D01*
X50683Y01547D01*
X50771Y01594D01*
X50857Y01644D01*
X50941Y01698D01*
X51023Y01755D01*
X51102Y01815D01*
X51180Y01879D01*
X51254Y01945D01*
X51326Y02014D01*
X51395Y02086D01*
X51461Y02160D01*
X51525Y02238D01*
X51585Y02317D01*
X51642Y02399D01*
X51696Y02483D01*
X51746Y02569D01*
X51793Y02657D01*
X51837Y02747D01*
X51877Y02838D01*
X51913Y02931D01*
X51946Y03025D01*
X51975Y03121D01*
X52000Y03217D01*
X52021Y03314D01*
X52039Y03413D01*
X52052Y03511D01*
X52062Y03611D01*
X52068Y03710D01*
X52070Y03810D01*
X52070Y21590D01*
X52068Y21690D01*
X52062Y21789D01*
X52052Y21889D01*
X52039Y21987D01*
X52021Y22086D01*
X52000Y22183D01*
X51975Y22279D01*
X51946Y22375D01*
X51913Y22469D01*
X51877Y22562D01*
X51837Y22653D01*
X51793Y22743D01*
X51746Y22831D01*
X51696Y22917D01*
X51642Y23001D01*
X51585Y23083D01*
X51525Y23162D01*
X51461Y23240D01*
X51395Y23314D01*
X51326Y23386D01*
X51254Y23455D01*
X51180Y23521D01*
X51102Y23585D01*
X51023Y23645D01*
X50941Y23702D01*
X50857Y23756D01*
X50771Y23806D01*
X50683Y23853D01*
X50593Y23897D01*
X50502Y23937D01*
X50409Y23973D01*
X50315Y24006D01*
X50219Y24035D01*
X50123Y24060D01*
X50026Y24081D01*
X49927Y24099D01*
X49829Y24112D01*
X49729Y24122D01*
X49630Y24128D01*
X49530Y24130D01*
X03810Y24130D01*
X03710Y24128D01*
X03611Y24122D01*
X03511Y24112D01*
X03413Y24099D01*
X03314Y24081D01*
X03217Y24060D01*
X03121Y24035D01*
X03025Y24006D01*
X02931Y23973D01*
X02838Y23937D01*
X02747Y23897D01*
X02657Y23853D01*
X02569Y23806D01*
X02483Y23756D01*
X02399Y23702D01*
X02317Y23645D01*
X02238Y23585D01*
X02160Y23521D01*
X02086Y23455D01*
X02014Y23386D01*
X01945Y23314D01*
X01879Y23240D01*
X01815Y23162D01*
X01755Y23083D01*
X01698Y23001D01*
X01644Y22917D01*
X01594Y22831D01*
X01547Y22743D01*
X01503Y22653D01*
X01463Y22562D01*
X01427Y22469D01*
X01394Y22375D01*
X01365Y22279D01*
X01340Y22183D01*
X01319Y22086D01*
X01301Y21987D01*
X01288Y21889D01*
X01278Y21789D01*
X01272Y21690D01*
X01270Y21590D01*
X01270Y03810D01*
X01272Y03710D01*
X01278Y03611D01*
X01288Y03511D01*
X01301Y03413D01*
X01319Y03314D01*
X01340Y03217D01*
X01365Y03121D01*
X01394Y03025D01*
X01427Y02931D01*
X01463Y02838D01*
X01503Y02747D01*
X01547Y02657D01*
X01594Y02569D01*
X01644Y02483D01*
X01698Y02399D01*
X01755Y02317D01*
X01815Y02238D01*
X01879Y02160D01*
X01945Y02086D01*
X02014Y02014D01*
X02086Y01945D01*
X02160Y01879D01*
X02238Y01815D01*
X02317Y01755D01*
X02399Y01698D01*
X02483Y01644D01*
X02569Y01594D01*
X02657Y01547D01*
X02747Y01503D01*
X02838Y01463D01*
X02931Y01427D01*
X03025Y01394D01*
X03121Y01365D01*
X03217Y01340D01*
X03314Y01319D01*
X03413Y01301D01*
X03511Y01288D01*
X03611Y01278D01*
X03710Y01272D01*
X03810Y01270D01*
X48260Y21590D02*
X48262Y21661D01*
X48268Y21732D01*
X48278Y21803D01*
X48292Y21873D01*
X48310Y21942D01*
X48331Y22009D01*
X48357Y22076D01*
X48386Y22141D01*
X48418Y22204D01*
X48455Y22266D01*
X48494Y22325D01*
X48537Y22382D01*
X48583Y22436D01*
X48632Y22488D01*
X48684Y22537D01*
X48738Y22583D01*
X48795Y22626D01*
X48854Y22665D01*
X48916Y22702D01*
X48979Y22734D01*
X49044Y22763D01*
X49111Y22789D01*
X49178Y22810D01*
X49247Y22828D01*
X49317Y22842D01*
X49388Y22852D01*
X49459Y22858D01*
X49530Y22860D01*
X49601Y22858D01*
X49672Y22852D01*
X49743Y22842D01*
X49813Y22828D01*
X49882Y22810D01*
X49949Y22789D01*
X50016Y22763D01*
X50081Y22734D01*
X50144Y22702D01*
X50206Y22665D01*
X50265Y22626D01*
X50322Y22583D01*
X50376Y22537D01*
X50428Y22488D01*
X50477Y22436D01*
X50523Y22382D01*
X50566Y22325D01*
X50605Y22266D01*
X50642Y22204D01*
X50674Y22141D01*
X50703Y22076D01*
X50729Y22009D01*
X50750Y21942D01*
X50768Y21873D01*
X50782Y21803D01*
X50792Y21732D01*
X50798Y21661D01*
X50800Y21590D01*
X50798Y21519D01*
X50792Y21448D01*
X50782Y21377D01*
X50768Y21307D01*
X50750Y21238D01*
X50729Y21171D01*
X50703Y21104D01*
X50674Y21039D01*
X50642Y20976D01*
X50605Y20914D01*
X50566Y20855D01*
X50523Y20798D01*
X50477Y20744D01*
X50428Y20692D01*
X50376Y20643D01*
X50322Y20597D01*
X50265Y20554D01*
X50206Y20515D01*
X50144Y20478D01*
X50081Y20446D01*
X50016Y20417D01*
X49949Y20391D01*
X49882Y20370D01*
X49813Y20352D01*
X49743Y20338D01*
X49672Y20328D01*
X49601Y20322D01*
X49530Y20320D01*
X49459Y20322D01*
X49388Y20328D01*
X49317Y20338D01*
X49247Y20352D01*
X49178Y20370D01*
X49111Y20391D01*
X49044Y20417D01*
X48979Y20446D01*
X48916Y20478D01*
X48854Y20515D01*
X48795Y20554D01*
X48738Y20597D01*
X48684Y20643D01*
X48632Y20692D01*
X48583Y20744D01*
X48537Y20798D01*
X48494Y20855D01*
X48455Y20914D01*
X48418Y20976D01*
X48386Y21039D01*
X48357Y21104D01*
X48331Y21171D01*
X48310Y21238D01*
X48292Y21307D01*
X48278Y21377D01*
X48268Y21448D01*
X48262Y21519D01*
X48260Y21590D01*
X48260Y03810D02*
X48262Y03881D01*
X48268Y03952D01*
X48278Y04023D01*
X48292Y04093D01*
X48310Y04162D01*
X48331Y04229D01*
X48357Y04296D01*
X48386Y04361D01*
X48418Y04424D01*
X48455Y04486D01*
X48494Y04545D01*
X48537Y04602D01*
X48583Y04656D01*
X48632Y04708D01*
X48684Y04757D01*
X48738Y04803D01*
X48795Y04846D01*
X48854Y04885D01*
X48916Y04922D01*
X48979Y04954D01*
X49044Y04983D01*
X49111Y05009D01*
X49178Y05030D01*
X49247Y05048D01*
X49317Y05062D01*
X49388Y05072D01*
X49459Y05078D01*
X49530Y05080D01*
X49601Y05078D01*
X49672Y05072D01*
X49743Y05062D01*
X49813Y05048D01*
X49882Y05030D01*
X49949Y05009D01*
X50016Y04983D01*
X50081Y04954D01*
X50144Y04922D01*
X50206Y04885D01*
X50265Y04846D01*
X50322Y04803D01*
X50376Y04757D01*
X50428Y04708D01*
X50477Y04656D01*
X50523Y04602D01*
X50566Y04545D01*
X50605Y04486D01*
X50642Y04424D01*
X50674Y04361D01*
X50703Y04296D01*
X50729Y04229D01*
X50750Y04162D01*
X50768Y04093D01*
X50782Y04023D01*
X50792Y03952D01*
X50798Y03881D01*
X50800Y03810D01*
X50798Y03739D01*
X50792Y03668D01*
X50782Y03597D01*
X50768Y03527D01*
X50750Y03458D01*
X50729Y03391D01*
X50703Y03324D01*
X50674Y03259D01*
X50642Y03196D01*
X50605Y03134D01*
X50566Y03075D01*
X50523Y03018D01*
X50477Y02964D01*
X50428Y02912D01*
X50376Y02863D01*
X50322Y02817D01*
X50265Y02774D01*
X50206Y02735D01*
X50144Y02698D01*
X50081Y02666D01*
X50016Y02637D01*
X49949Y02611D01*
X49882Y02590D01*
X49813Y02572D01*
X49743Y02558D01*
X49672Y02548D01*
X49601Y02542D01*
X49530Y02540D01*
X49459Y02542D01*
X49388Y02548D01*
X49317Y02558D01*
X49247Y02572D01*
X49178Y02590D01*
X49111Y02611D01*
X49044Y02637D01*
X48979Y02666D01*
X48916Y02698D01*
X48854Y02735D01*
X48795Y02774D01*
X48738Y02817D01*
X48684Y02863D01*
X48632Y02912D01*
X48583Y02964D01*
X48537Y03018D01*
X48494Y03075D01*
X48455Y03134D01*
X48418Y03196D01*
X48386Y03259D01*
X48357Y03324D01*
X48331Y03391D01*
X48310Y03458D01*
X48292Y03527D01*
X48278Y03597D01*
X48268Y03668D01*
X48262Y03739D01*
X48260Y03810D01*
M02*
